<?xml version="1.0" encoding="utf-8"?>
<!-- Generator: Adobe Illustrator 19.0.0, SVG Export Plug-In . SVG Version: 6.00 Build 0)  -->
<svg version="1.2" baseProfile="tiny" id="Layer_1" xmlns="http://www.w3.org/2000/svg" xmlns:xlink="http://www.w3.org/1999/xlink"
	 x="0px" y="0px" viewBox="0 0 270.4 60.6" xml:space="preserve">
<g>
	<g>
		<g>
			<g>
				<g>
					<path fill="#ffffff" d="M108.4,18.4c0,1.3-0.2,2.4-0.6,3.3c-0.4,1-1,1.8-1.7,2.4c-0.7,0.7-1.7,1.2-2.8,1.5
						c-1.1,0.3-2.4,0.5-3.8,0.5h-1.9v7.2c0,0.1,0,0.2-0.1,0.3c-0.1,0.1-0.2,0.2-0.4,0.2c-0.2,0.1-0.4,0.1-0.7,0.1
						c-0.3,0-0.7,0.1-1.1,0.1c-0.4,0-0.8,0-1.1-0.1c-0.3,0-0.5-0.1-0.7-0.1c-0.2-0.1-0.3-0.1-0.4-0.2c-0.1-0.1-0.1-0.2-0.1-0.3V13.2
						c0-0.5,0.1-0.9,0.4-1.2c0.3-0.3,0.7-0.4,1.1-0.4h5.3c0.5,0,1,0,1.5,0.1c0.5,0,1.1,0.1,1.7,0.3c0.7,0.1,1.3,0.4,2,0.7
						c0.7,0.4,1.3,0.8,1.8,1.4c0.5,0.5,0.9,1.2,1.1,1.9C108.2,16.7,108.4,17.5,108.4,18.4z M103.6,18.7c0-0.8-0.1-1.4-0.4-1.9
						c-0.3-0.5-0.6-0.9-1-1.1c-0.4-0.2-0.8-0.4-1.3-0.5c-0.4-0.1-0.9-0.1-1.4-0.1h-1.9v7.6h2c0.7,0,1.3-0.1,1.8-0.3
						c0.5-0.2,0.9-0.5,1.2-0.8c0.3-0.4,0.5-0.8,0.7-1.3C103.5,19.8,103.6,19.3,103.6,18.7z"/>
					<path fill="#ffffff" d="M127.1,33.4c0,0.2-0.1,0.3-0.2,0.4c-0.1,0.1-0.3,0.2-0.5,0.2c-0.2,0-0.6,0.1-1.1,0.1
						c-0.5,0-0.9,0-1.1-0.1c-0.2,0-0.4-0.1-0.5-0.2c-0.1-0.1-0.1-0.2-0.1-0.4v-1.2c-0.6,0.7-1.4,1.2-2.2,1.6
						c-0.8,0.4-1.7,0.6-2.7,0.6c-0.8,0-1.6-0.1-2.3-0.3c-0.7-0.2-1.3-0.5-1.8-1c-0.5-0.4-0.9-0.9-1.2-1.6c-0.3-0.6-0.4-1.4-0.4-2.2
						c0-0.9,0.2-1.7,0.5-2.3c0.4-0.7,0.9-1.2,1.6-1.6c0.7-0.4,1.6-0.8,2.6-1c1-0.2,2.2-0.3,3.6-0.3h1.5v-0.9c0-0.5,0-0.9-0.1-1.3
						c-0.1-0.4-0.3-0.7-0.5-0.9c-0.2-0.2-0.5-0.4-0.9-0.5c-0.4-0.1-0.8-0.2-1.4-0.2c-0.7,0-1.4,0.1-1.9,0.2
						c-0.6,0.2-1.1,0.3-1.5,0.5c-0.4,0.2-0.8,0.4-1.1,0.5c-0.3,0.2-0.5,0.2-0.7,0.2c-0.1,0-0.2,0-0.3-0.1c-0.1-0.1-0.2-0.2-0.2-0.3
						c-0.1-0.1-0.1-0.3-0.1-0.6c0-0.2-0.1-0.5-0.1-0.7c0-0.4,0-0.6,0.1-0.8c0.1-0.2,0.2-0.4,0.3-0.6c0.2-0.2,0.4-0.4,0.8-0.6
						c0.4-0.2,0.9-0.4,1.4-0.6c0.5-0.2,1.1-0.3,1.8-0.4c0.6-0.1,1.3-0.2,2-0.2c1.2,0,2.2,0.1,3.1,0.4c0.9,0.2,1.6,0.6,2.1,1.1
						c0.6,0.5,1,1.1,1.2,1.9c0.3,0.8,0.4,1.7,0.4,2.7V33.4z M122.8,26.8h-1.7c-0.7,0-1.3,0.1-1.8,0.2c-0.5,0.1-0.9,0.3-1.2,0.5
						c-0.3,0.2-0.5,0.5-0.7,0.8c-0.1,0.3-0.2,0.6-0.2,1c0,0.6,0.2,1.2,0.6,1.5c0.4,0.4,1,0.6,1.7,0.6c0.6,0,1.2-0.2,1.7-0.5
						c0.5-0.3,1-0.8,1.6-1.4V26.8z"/>
					<path fill="#ffffff" d="M142.7,34l-1.9,5.5c-0.1,0.3-0.4,0.5-0.8,0.6c-0.5,0.1-1.1,0.2-2,0.2c-0.5,0-0.8,0-1.1-0.1
						c-0.3,0-0.5-0.1-0.6-0.2c-0.1-0.1-0.2-0.2-0.2-0.3c0-0.1,0-0.3,0.1-0.5l2-5.2c-0.2-0.1-0.3-0.2-0.4-0.3
						c-0.1-0.1-0.2-0.3-0.3-0.5L132.2,19c-0.1-0.4-0.2-0.7-0.2-0.9c0-0.2,0.1-0.4,0.2-0.5c0.1-0.1,0.4-0.2,0.7-0.3
						c0.3,0,0.8-0.1,1.3-0.1c0.5,0,0.9,0,1.2,0c0.3,0,0.5,0.1,0.7,0.1c0.2,0.1,0.3,0.2,0.4,0.3c0.1,0.1,0.2,0.3,0.2,0.6l3.7,10.3
						h0.1l3.3-10.5c0.1-0.3,0.2-0.5,0.3-0.6c0.1-0.1,0.3-0.2,0.5-0.2c0.3,0,0.7-0.1,1.3-0.1c0.5,0,0.9,0,1.2,0.1
						c0.3,0,0.6,0.1,0.7,0.3c0.2,0.1,0.2,0.3,0.2,0.5c0,0.2,0,0.5-0.1,0.8L142.7,34z"/>
					<path fill="#ffffff" d="M179.9,33.4c0,0.1,0,0.2-0.1,0.3c-0.1,0.1-0.2,0.2-0.3,0.2c-0.2,0.1-0.4,0.1-0.7,0.1
						c-0.3,0-0.6,0.1-1.1,0.1c-0.4,0-0.8,0-1-0.1c-0.3,0-0.5-0.1-0.7-0.1c-0.2-0.1-0.3-0.1-0.3-0.2c-0.1-0.1-0.1-0.2-0.1-0.3V15.1h0
						l-6.5,18.2c0,0.2-0.1,0.3-0.2,0.4c-0.1,0.1-0.2,0.2-0.4,0.2c-0.2,0.1-0.4,0.1-0.7,0.1c-0.3,0-0.6,0-1,0c-0.4,0-0.7,0-1,0
						c-0.3,0-0.5-0.1-0.7-0.1c-0.2-0.1-0.3-0.1-0.4-0.2c-0.1-0.1-0.2-0.2-0.2-0.3l-6.2-18.2h0v18.2c0,0.1,0,0.2-0.1,0.3
						c-0.1,0.1-0.2,0.2-0.4,0.2c-0.2,0.1-0.4,0.1-0.7,0.1c-0.3,0-0.6,0.1-1,0.1c-0.4,0-0.8,0-1-0.1c-0.3,0-0.5-0.1-0.7-0.1
						c-0.2-0.1-0.3-0.1-0.3-0.2c-0.1-0.1-0.1-0.2-0.1-0.3V13.4c0-0.6,0.2-1,0.5-1.3c0.3-0.3,0.7-0.5,1.2-0.5h3c0.5,0,1,0,1.4,0.1
						c0.4,0.1,0.7,0.2,1,0.4c0.3,0.2,0.5,0.5,0.7,0.8c0.2,0.3,0.3,0.7,0.5,1.2l4.8,13.3h0.1l5-13.3c0.2-0.5,0.3-0.9,0.5-1.2
						c0.2-0.3,0.4-0.6,0.6-0.8c0.2-0.2,0.5-0.4,0.8-0.4c0.3-0.1,0.7-0.1,1.1-0.1h3.1c0.3,0,0.6,0,0.8,0.1c0.2,0.1,0.4,0.2,0.6,0.4
						c0.1,0.2,0.3,0.3,0.3,0.6c0.1,0.2,0.1,0.5,0.1,0.8V33.4z"/>
					<path fill="#ffffff" d="M200.7,33.4c0,0.2-0.1,0.3-0.2,0.4c-0.1,0.1-0.3,0.2-0.5,0.2c-0.2,0-0.6,0.1-1.1,0.1
						c-0.5,0-0.9,0-1.1-0.1c-0.2,0-0.4-0.1-0.5-0.2c-0.1-0.1-0.1-0.2-0.1-0.4v-1.2c-0.6,0.7-1.4,1.2-2.2,1.6
						c-0.8,0.4-1.7,0.6-2.7,0.6c-0.8,0-1.6-0.1-2.3-0.3c-0.7-0.2-1.3-0.5-1.8-1c-0.5-0.4-0.9-0.9-1.2-1.6c-0.3-0.6-0.4-1.4-0.4-2.2
						c0-0.9,0.2-1.7,0.5-2.3c0.4-0.7,0.9-1.2,1.6-1.6c0.7-0.4,1.6-0.8,2.6-1c1-0.2,2.2-0.3,3.6-0.3h1.5v-0.9c0-0.5,0-0.9-0.1-1.3
						c-0.1-0.4-0.3-0.7-0.5-0.9c-0.2-0.2-0.5-0.4-0.9-0.5c-0.4-0.1-0.8-0.2-1.4-0.2c-0.7,0-1.4,0.1-1.9,0.2
						c-0.6,0.2-1.1,0.3-1.5,0.5c-0.4,0.2-0.8,0.4-1.1,0.5c-0.3,0.2-0.5,0.2-0.7,0.2c-0.1,0-0.2,0-0.3-0.1c-0.1-0.1-0.2-0.2-0.2-0.3
						c-0.1-0.1-0.1-0.3-0.1-0.6c0-0.2-0.1-0.5-0.1-0.7c0-0.4,0-0.6,0.1-0.8c0.1-0.2,0.2-0.4,0.3-0.6c0.2-0.2,0.4-0.4,0.8-0.6
						c0.4-0.2,0.9-0.4,1.4-0.6c0.5-0.2,1.1-0.3,1.8-0.4c0.6-0.1,1.3-0.2,2-0.2c1.2,0,2.2,0.1,3.1,0.4c0.9,0.2,1.6,0.6,2.1,1.1
						c0.6,0.5,1,1.1,1.2,1.9c0.3,0.8,0.4,1.7,0.4,2.7V33.4z M196.4,26.8h-1.7c-0.7,0-1.3,0.1-1.8,0.2c-0.5,0.1-0.9,0.3-1.2,0.5
						c-0.3,0.2-0.5,0.5-0.7,0.8c-0.1,0.3-0.2,0.6-0.2,1c0,0.6,0.2,1.2,0.6,1.5c0.4,0.4,1,0.6,1.7,0.6c0.6,0,1.2-0.2,1.7-0.5
						c0.5-0.3,1-0.8,1.6-1.4V26.8z"/>
					<path fill="#ffffff" d="M218.9,29c0,0.9-0.2,1.6-0.5,2.3c-0.3,0.7-0.8,1.2-1.4,1.7c-0.6,0.4-1.3,0.8-2.1,1
						c-0.8,0.2-1.7,0.3-2.7,0.3c-0.6,0-1.1,0-1.7-0.1c-0.5-0.1-1-0.2-1.4-0.3c-0.4-0.1-0.8-0.3-1-0.4c-0.3-0.1-0.5-0.3-0.6-0.4
						c-0.1-0.1-0.2-0.3-0.3-0.6c-0.1-0.3-0.1-0.6-0.1-1.2c0-0.3,0-0.6,0-0.8c0-0.2,0.1-0.4,0.1-0.5c0-0.1,0.1-0.2,0.2-0.2
						c0.1,0,0.2-0.1,0.3-0.1c0.1,0,0.3,0.1,0.6,0.2c0.2,0.1,0.6,0.3,0.9,0.5c0.4,0.2,0.8,0.3,1.3,0.5c0.5,0.1,1,0.2,1.7,0.2
						c0.4,0,0.7,0,1-0.1c0.3-0.1,0.6-0.2,0.8-0.3c0.2-0.1,0.4-0.3,0.5-0.6c0.1-0.2,0.2-0.5,0.2-0.8c0-0.3-0.1-0.6-0.3-0.9
						c-0.2-0.2-0.5-0.5-0.8-0.6c-0.4-0.2-0.8-0.4-1.2-0.5c-0.4-0.2-0.9-0.3-1.4-0.5c-0.5-0.2-0.9-0.4-1.4-0.7
						c-0.4-0.3-0.8-0.6-1.2-0.9c-0.4-0.4-0.6-0.8-0.8-1.3c-0.2-0.5-0.3-1.1-0.3-1.9c0-0.7,0.1-1.4,0.4-2c0.3-0.6,0.7-1.1,1.2-1.6
						c0.5-0.4,1.2-0.8,2-1c0.8-0.2,1.7-0.4,2.6-0.4c0.5,0,1,0,1.4,0.1c0.5,0.1,0.9,0.2,1.2,0.3c0.4,0.1,0.7,0.2,0.9,0.3
						c0.3,0.1,0.4,0.2,0.5,0.3c0.1,0.1,0.2,0.2,0.2,0.3c0,0.1,0.1,0.2,0.1,0.3c0,0.1,0,0.3,0.1,0.4c0,0.2,0,0.4,0,0.7
						c0,0.3,0,0.6,0,0.8c0,0.2,0,0.4-0.1,0.5c0,0.1-0.1,0.2-0.2,0.2c-0.1,0-0.2,0.1-0.2,0.1c-0.1,0-0.3-0.1-0.5-0.2
						c-0.2-0.1-0.5-0.3-0.8-0.4c-0.3-0.1-0.7-0.3-1.1-0.4c-0.4-0.1-0.9-0.2-1.5-0.2c-0.4,0-0.7,0-1,0.1c-0.3,0.1-0.5,0.2-0.7,0.3
						c-0.2,0.2-0.3,0.3-0.4,0.5c-0.1,0.2-0.1,0.4-0.1,0.6c0,0.4,0.1,0.7,0.3,0.9c0.2,0.2,0.5,0.5,0.9,0.6c0.4,0.2,0.8,0.4,1.2,0.5
						c0.5,0.2,0.9,0.3,1.4,0.5c0.5,0.2,0.9,0.4,1.4,0.7c0.5,0.3,0.9,0.6,1.2,0.9c0.4,0.4,0.6,0.8,0.9,1.3
						C218.8,27.7,218.9,28.3,218.9,29z"/>
					<path fill="#ffffff" d="M233.9,31.9c0,0.5,0,0.9-0.1,1.2c-0.1,0.3-0.1,0.5-0.3,0.6c-0.1,0.1-0.3,0.2-0.5,0.3
						c-0.2,0.1-0.4,0.2-0.7,0.2c-0.3,0.1-0.6,0.1-0.9,0.1c-0.3,0-0.6,0.1-1,0.1c-0.9,0-1.6-0.1-2.2-0.3c-0.6-0.2-1.2-0.6-1.6-1
						c-0.4-0.5-0.7-1-0.9-1.7c-0.2-0.7-0.3-1.5-0.3-2.5v-7.9h-1.9c-0.2,0-0.4-0.1-0.5-0.4c-0.1-0.3-0.2-0.7-0.2-1.4
						c0-0.3,0-0.6,0-0.8c0-0.2,0.1-0.4,0.1-0.5c0.1-0.1,0.1-0.2,0.2-0.3c0.1-0.1,0.2-0.1,0.3-0.1h1.8v-3.4c0-0.1,0-0.2,0.1-0.3
						c0.1-0.1,0.2-0.2,0.3-0.2c0.2-0.1,0.4-0.1,0.7-0.1c0.3,0,0.6,0,1,0c0.4,0,0.8,0,1.1,0c0.3,0,0.5,0.1,0.7,0.1
						c0.2,0.1,0.3,0.1,0.3,0.2c0.1,0.1,0.1,0.2,0.1,0.3v3.4h3.3c0.1,0,0.2,0,0.3,0.1c0.1,0.1,0.2,0.2,0.2,0.3
						c0.1,0.1,0.1,0.3,0.1,0.5c0,0.2,0,0.5,0,0.8c0,0.6-0.1,1.1-0.2,1.4c-0.1,0.3-0.3,0.4-0.5,0.4h-3.4v7.3c0,0.8,0.1,1.5,0.4,1.9
						c0.3,0.4,0.7,0.6,1.4,0.6c0.2,0,0.4,0,0.6-0.1c0.2,0,0.3-0.1,0.5-0.1c0.1-0.1,0.3-0.1,0.4-0.1c0.1,0,0.2-0.1,0.3-0.1
						c0.1,0,0.1,0,0.2,0.1c0.1,0,0.1,0.1,0.1,0.2c0,0.1,0.1,0.3,0.1,0.5C233.9,31.3,233.9,31.6,233.9,31.9z"/>
					<path fill="#ffffff" d="M253.8,25.2c0,0.5-0.1,0.9-0.4,1.2c-0.2,0.3-0.6,0.4-1,0.4h-9.4c0,0.7,0.1,1.3,0.2,1.8
						c0.2,0.5,0.4,1,0.7,1.4c0.3,0.4,0.8,0.7,1.3,0.9c0.5,0.2,1.2,0.3,1.9,0.3c0.8,0,1.4-0.1,2-0.2c0.6-0.1,1.1-0.2,1.5-0.4
						c0.4-0.1,0.8-0.3,1-0.4c0.3-0.1,0.5-0.2,0.7-0.2c0.1,0,0.2,0,0.3,0.1c0.1,0,0.1,0.1,0.2,0.2c0,0.1,0.1,0.3,0.1,0.4
						c0,0.2,0,0.4,0,0.7c0,0.3,0,0.5,0,0.7c0,0.2,0,0.3-0.1,0.5c0,0.1-0.1,0.2-0.1,0.3c0,0.1-0.1,0.2-0.2,0.3
						c-0.1,0.1-0.3,0.2-0.6,0.3c-0.3,0.1-0.8,0.3-1.3,0.4c-0.5,0.1-1.1,0.2-1.8,0.3c-0.7,0.1-1.4,0.1-2.1,0.1
						c-1.4,0-2.6-0.2-3.6-0.5c-1-0.3-1.9-0.9-2.6-1.6c-0.7-0.7-1.2-1.6-1.5-2.7c-0.3-1.1-0.5-2.3-0.5-3.8c0-1.4,0.2-2.6,0.5-3.7
						c0.4-1.1,0.9-2,1.6-2.8c0.7-0.8,1.5-1.4,2.5-1.8c1-0.4,2.1-0.6,3.3-0.6c1.3,0,2.4,0.2,3.3,0.6c0.9,0.4,1.7,0.9,2.3,1.6
						c0.6,0.7,1,1.5,1.3,2.4c0.3,0.9,0.4,1.9,0.4,3V25.2z M249.6,24c0-1.2-0.2-2.2-0.7-2.9c-0.5-0.7-1.3-1-2.4-1
						c-0.6,0-1,0.1-1.4,0.3c-0.4,0.2-0.7,0.5-1,0.8c-0.3,0.4-0.5,0.8-0.6,1.2c-0.1,0.5-0.2,1-0.3,1.5H249.6z"/>
					<path fill="#ffffff" d="M270.4,19.4c0,0.4,0,0.8,0,1c0,0.3-0.1,0.5-0.1,0.6c0,0.1-0.1,0.3-0.2,0.3c-0.1,0.1-0.2,0.1-0.3,0.1
						c-0.1,0-0.2,0-0.3-0.1c-0.1,0-0.2-0.1-0.4-0.1c-0.1,0-0.3-0.1-0.5-0.1c-0.2,0-0.4-0.1-0.6-0.1c-0.2,0-0.5,0-0.7,0.1
						c-0.2,0.1-0.5,0.3-0.8,0.5c-0.3,0.2-0.5,0.5-0.8,0.8c-0.3,0.3-0.6,0.8-0.9,1.3v9.6c0,0.1,0,0.2-0.1,0.3
						c-0.1,0.1-0.2,0.2-0.4,0.2c-0.2,0.1-0.4,0.1-0.7,0.1c-0.3,0-0.6,0-1.1,0c-0.4,0-0.8,0-1.1,0c-0.3,0-0.5-0.1-0.7-0.1
						c-0.2-0.1-0.3-0.1-0.4-0.2c-0.1-0.1-0.1-0.2-0.1-0.3V18c0-0.1,0-0.2,0.1-0.3c0.1-0.1,0.2-0.2,0.3-0.2c0.1-0.1,0.3-0.1,0.6-0.1
						c0.2,0,0.5,0,0.9,0c0.4,0,0.7,0,0.9,0c0.2,0,0.4,0.1,0.6,0.1c0.1,0.1,0.2,0.1,0.3,0.2c0.1,0.1,0.1,0.2,0.1,0.3v1.9
						c0.4-0.6,0.8-1,1.1-1.4c0.4-0.4,0.7-0.7,1-0.9c0.3-0.2,0.6-0.4,1-0.5c0.3-0.1,0.6-0.1,1-0.1c0.1,0,0.3,0,0.5,0
						c0.2,0,0.4,0,0.5,0.1c0.2,0,0.3,0.1,0.5,0.1c0.1,0.1,0.2,0.1,0.3,0.2c0.1,0.1,0.1,0.1,0.1,0.2c0,0.1,0.1,0.2,0.1,0.3
						c0,0.1,0,0.3,0.1,0.5C270.4,18.7,270.4,19,270.4,19.4z"/>
				</g>
				<g>
					<path fill="#ffffff" d="M99.1,54.9c0,0.3,0,0.6-0.1,0.9c-0.1,0.3-0.2,0.5-0.3,0.7c-0.1,0.2-0.3,0.4-0.5,0.6
						c-0.2,0.2-0.4,0.3-0.7,0.4c-0.3,0.1-0.5,0.2-0.8,0.2c-0.3,0.1-0.6,0.1-1,0.1h-2.6c-0.1,0-0.2,0-0.3-0.1
						c-0.1-0.1-0.2-0.2-0.2-0.4v-9c0-0.2,0.1-0.3,0.2-0.4c0.1-0.1,0.2-0.1,0.3-0.1h2.3c0.6,0,1.1,0.1,1.5,0.2c0.4,0.1,0.7,0.3,1,0.5
						c0.3,0.2,0.5,0.5,0.6,0.8c0.1,0.3,0.2,0.7,0.2,1.1c0,0.2,0,0.5-0.1,0.7c-0.1,0.2-0.1,0.4-0.3,0.6c-0.1,0.2-0.3,0.3-0.4,0.5
						c-0.2,0.1-0.4,0.3-0.6,0.4c0.3,0.1,0.5,0.1,0.8,0.3c0.2,0.1,0.4,0.3,0.6,0.5c0.2,0.2,0.3,0.5,0.4,0.8
						C99,54.2,99.1,54.5,99.1,54.9z M97.1,50.3c0-0.2,0-0.5-0.1-0.7c-0.1-0.2-0.2-0.4-0.3-0.5c-0.1-0.1-0.3-0.2-0.6-0.3
						c-0.2-0.1-0.5-0.1-0.9-0.1h-1.4V52h1.5c0.3,0,0.6,0,0.8-0.1c0.2-0.1,0.4-0.2,0.5-0.4c0.1-0.2,0.2-0.3,0.3-0.5
						C97,50.8,97.1,50.6,97.1,50.3z M97.7,54.9c0-0.3,0-0.6-0.1-0.8c-0.1-0.2-0.2-0.4-0.4-0.6c-0.2-0.2-0.4-0.3-0.7-0.4
						c-0.3-0.1-0.6-0.1-1-0.1h-1.6v3.6h1.9c0.3,0,0.6,0,0.8-0.1c0.2-0.1,0.4-0.2,0.6-0.3c0.2-0.1,0.3-0.3,0.4-0.5
						C97.6,55.5,97.7,55.2,97.7,54.9z"/>
					<path fill="#ffffff" d="M107.4,56.5c0,0.1,0,0.2,0,0.2c0,0.1,0,0.1,0,0.2c0,0,0,0.1,0,0.1c0,0-0.1,0.1-0.1,0.2
						c-0.1,0.1-0.2,0.1-0.3,0.2c-0.2,0.1-0.3,0.2-0.5,0.3c-0.2,0.1-0.4,0.1-0.6,0.2c-0.2,0-0.5,0.1-0.7,0.1c-0.5,0-1-0.1-1.3-0.3
						c-0.4-0.2-0.7-0.4-1-0.7c-0.3-0.3-0.5-0.7-0.6-1.2c-0.1-0.5-0.2-1-0.2-1.6c0-0.7,0.1-1.3,0.3-1.8c0.2-0.5,0.4-0.9,0.7-1.2
						c0.3-0.3,0.6-0.6,1-0.7c0.4-0.2,0.8-0.2,1.3-0.2c0.2,0,0.4,0,0.7,0.1c0.2,0,0.4,0.1,0.6,0.2c0.2,0.1,0.3,0.1,0.5,0.2
						c0.1,0.1,0.2,0.2,0.3,0.2s0.1,0.1,0.1,0.1c0,0,0,0.1,0.1,0.1c0,0,0,0.1,0,0.2c0,0.1,0,0.1,0,0.2c0,0.2,0,0.3-0.1,0.4
						c0,0.1-0.1,0.1-0.2,0.1c-0.1,0-0.2,0-0.3-0.1c-0.1-0.1-0.2-0.2-0.4-0.3c-0.2-0.1-0.3-0.2-0.6-0.3c-0.2-0.1-0.5-0.1-0.8-0.1
						c-0.6,0-1.1,0.2-1.4,0.7c-0.3,0.5-0.5,1.2-0.5,2.1c0,0.5,0,0.8,0.1,1.2c0.1,0.3,0.2,0.6,0.4,0.9c0.2,0.2,0.4,0.4,0.6,0.5
						c0.2,0.1,0.5,0.2,0.8,0.2c0.3,0,0.6,0,0.8-0.1c0.2-0.1,0.4-0.2,0.6-0.3c0.2-0.1,0.3-0.2,0.4-0.3c0.1-0.1,0.2-0.1,0.3-0.1
						c0,0,0.1,0,0.1,0s0,0.1,0.1,0.1c0,0,0,0.1,0,0.2C107.4,56.3,107.4,56.4,107.4,56.5z"/>
					<path fill="#ffffff" d="M116.4,53.8c0,0.2-0.1,0.3-0.2,0.4c-0.1,0.1-0.2,0.1-0.3,0.1h-4.6c0,0.4,0,0.7,0.1,1
						c0.1,0.3,0.2,0.6,0.4,0.8c0.2,0.2,0.4,0.4,0.7,0.5c0.3,0.1,0.6,0.2,1.1,0.2c0.3,0,0.6,0,0.9-0.1c0.3-0.1,0.5-0.1,0.7-0.2
						c0.2-0.1,0.3-0.1,0.5-0.2c0.1-0.1,0.2-0.1,0.3-0.1c0,0,0.1,0,0.1,0c0,0,0.1,0,0.1,0.1c0,0,0,0.1,0,0.2c0,0.1,0,0.1,0,0.2
						c0,0.1,0,0.1,0,0.2c0,0,0,0.1,0,0.1c0,0,0,0.1,0,0.1c0,0,0,0.1-0.1,0.1c0,0-0.1,0.1-0.3,0.1c-0.1,0.1-0.3,0.1-0.5,0.2
						c-0.2,0.1-0.5,0.1-0.8,0.2c-0.3,0-0.6,0.1-0.9,0.1c-0.6,0-1.1-0.1-1.5-0.2c-0.4-0.2-0.8-0.4-1.1-0.7c-0.3-0.3-0.5-0.7-0.7-1.2
						c-0.2-0.5-0.2-1-0.2-1.7c0-0.6,0.1-1.1,0.2-1.6c0.2-0.5,0.4-0.9,0.7-1.2c0.3-0.3,0.6-0.6,1.1-0.8c0.4-0.2,0.9-0.3,1.4-0.3
						c0.6,0,1,0.1,1.4,0.3c0.4,0.2,0.7,0.4,1,0.7c0.3,0.3,0.4,0.7,0.5,1.1c0.1,0.4,0.2,0.8,0.2,1.3V53.8z M112.6,48.3
						c0,0.3-0.1,0.5-0.2,0.6c-0.1,0.1-0.3,0.2-0.6,0.2c-0.3,0-0.5-0.1-0.6-0.2c-0.1-0.1-0.1-0.3-0.1-0.6c0-0.3,0.1-0.5,0.2-0.6
						c0.1-0.1,0.3-0.2,0.6-0.2c0.3,0,0.5,0.1,0.6,0.2C112.6,47.8,112.6,48,112.6,48.3z M115.1,53.4c0-0.7-0.1-1.2-0.4-1.6
						c-0.3-0.4-0.8-0.6-1.4-0.6c-0.3,0-0.6,0.1-0.8,0.2c-0.2,0.1-0.4,0.3-0.6,0.5c-0.2,0.2-0.3,0.4-0.4,0.7
						c-0.1,0.3-0.1,0.5-0.1,0.8H115.1z M115.4,48.3c0,0.3-0.1,0.5-0.2,0.6c-0.1,0.1-0.3,0.2-0.6,0.2s-0.5-0.1-0.6-0.2
						c-0.1-0.1-0.1-0.3-0.1-0.6c0-0.3,0.1-0.5,0.2-0.6c0.1-0.1,0.3-0.2,0.6-0.2c0.3,0,0.5,0.1,0.6,0.2
						C115.4,47.8,115.4,48,115.4,48.3z"/>
					<path fill="#ffffff" d="M130.5,55.5c0,0.4-0.1,0.7-0.2,1c-0.1,0.3-0.3,0.5-0.6,0.7c-0.3,0.2-0.6,0.3-1,0.4
						c-0.4,0.1-0.9,0.2-1.4,0.2c-0.2,0-0.3,0-0.5,0c-0.2,0-0.3,0-0.5,0s-0.3,0-0.4,0c-0.1,0-0.3,0-0.4,0c-0.2,0-0.4-0.1-0.5-0.2
						c-0.1-0.1-0.1-0.3-0.1-0.5v-6c0-0.2,0-0.4,0.1-0.5c0.1-0.1,0.2-0.2,0.4-0.2c0.1,0,0.3,0,0.4,0c0.2,0,0.3,0,0.5,0
						c0.2,0,0.3,0,0.5,0c0.2,0,0.3,0,0.5,0c0.5,0,0.9,0,1.3,0.1c0.4,0.1,0.7,0.2,0.9,0.4c0.2,0.2,0.4,0.4,0.5,0.6
						c0.1,0.2,0.2,0.5,0.2,0.8c0,0.4-0.1,0.7-0.3,1c-0.2,0.3-0.5,0.5-0.9,0.6c0.5,0.1,0.9,0.3,1.2,0.6
						C130.4,54.7,130.5,55.1,130.5,55.5z M129,52.3c0-0.2,0-0.3-0.1-0.5c-0.1-0.1-0.2-0.3-0.3-0.3c-0.1-0.1-0.3-0.2-0.6-0.2
						c-0.2,0-0.5-0.1-0.8-0.1c-0.2,0-0.5,0-0.7,0c-0.2,0-0.4,0-0.5,0v2.2h1.3c0.5,0,0.9-0.1,1.2-0.3C128.8,52.9,129,52.7,129,52.3z
						 M129.2,55.6c0-0.2,0-0.4-0.1-0.5c-0.1-0.2-0.2-0.3-0.3-0.4c-0.2-0.1-0.4-0.2-0.6-0.2c-0.2-0.1-0.5-0.1-0.9-0.1H126v2.5
						c0.1,0,0.2,0,0.3,0c0.1,0,0.2,0,0.3,0c0.1,0,0.2,0,0.3,0c0.1,0,0.2,0,0.3,0c0.3,0,0.6,0,0.9-0.1c0.2-0.1,0.4-0.1,0.6-0.3
						c0.2-0.1,0.3-0.3,0.3-0.4C129.1,56,129.2,55.8,129.2,55.6z"/>
					<path fill="#ffffff" d="M144.5,57.6C144.5,57.7,144.4,57.7,144.5,57.6c0,0.1-0.1,0.1-0.1,0.1c0,0-0.1,0-0.2,0
						c-0.1,0-0.2,0-0.3,0c-0.1,0-0.3,0-0.4,0c-0.1,0-0.2,0-0.2,0c-0.1,0-0.1,0-0.1-0.1c0,0,0-0.1-0.1-0.1l-0.8-1.8
						c-0.1-0.2-0.2-0.4-0.3-0.6c-0.1-0.2-0.2-0.3-0.4-0.4c-0.1-0.1-0.3-0.2-0.5-0.2c-0.2,0-0.4-0.1-0.6-0.1H140v3.2c0,0,0,0.1,0,0.1
						c0,0-0.1,0-0.1,0.1c-0.1,0-0.1,0-0.2,0c-0.1,0-0.2,0-0.3,0c-0.1,0-0.2,0-0.3,0c-0.1,0-0.2,0-0.2,0c-0.1,0-0.1,0-0.1-0.1
						c0,0,0-0.1,0-0.1v-7.1c0,0,0,0,0-0.1c0,0,0.1,0,0.1-0.1c0.1,0,0.1,0,0.2,0c0.1,0,0.2,0,0.3,0c0.1,0,0.2,0,0.3,0
						c0.1,0,0.2,0,0.2,0c0.1,0,0.1,0,0.1,0.1c0,0,0,0,0,0.1v2.9h0.5c0.2,0,0.4,0,0.5-0.1c0.2,0,0.3-0.1,0.5-0.2
						c0.1-0.1,0.3-0.2,0.4-0.4c0.1-0.2,0.2-0.4,0.3-0.6l0.7-1.6c0,0,0-0.1,0.1-0.1c0,0,0.1-0.1,0.1-0.1c0.1,0,0.1,0,0.2,0
						c0.1,0,0.2,0,0.3,0c0.1,0,0.2,0,0.3,0c0.1,0,0.1,0,0.2,0c0,0,0.1,0,0.1,0.1c0,0,0,0,0,0.1c0,0,0,0.1,0,0.1c0,0.1,0,0.1-0.1,0.2
						l-0.7,1.5c-0.1,0.3-0.2,0.5-0.3,0.7c-0.1,0.2-0.2,0.3-0.4,0.4c-0.1,0.1-0.3,0.2-0.4,0.3c-0.1,0.1-0.3,0.1-0.4,0.2v0
						c0.2,0.1,0.3,0.1,0.5,0.2c0.2,0.1,0.3,0.2,0.4,0.3c0.1,0.1,0.3,0.3,0.4,0.5c0.1,0.2,0.2,0.4,0.3,0.6l0.8,1.8c0,0,0,0.1,0,0.1
						c0,0,0,0.1,0,0.1C144.4,57.5,144.5,57.6,144.5,57.6C144.5,57.6,144.5,57.6,144.5,57.6z"/>
					<path fill="#ffffff" d="M152.6,57.6c0,0.1,0,0.1-0.1,0.1c0,0-0.1,0.1-0.2,0.1c-0.1,0-0.2,0-0.3,0c-0.1,0-0.2,0-0.3,0
						c-0.1,0-0.1,0-0.2-0.1c0,0-0.1-0.1-0.1-0.1v-0.7c-0.3,0.3-0.6,0.6-1,0.8c-0.4,0.2-0.8,0.3-1.2,0.3c-0.4,0-0.7,0-1-0.1
						s-0.6-0.2-0.8-0.4c-0.2-0.2-0.4-0.4-0.5-0.7c-0.1-0.3-0.2-0.6-0.2-0.9c0-0.4,0.1-0.7,0.2-1c0.2-0.3,0.4-0.5,0.7-0.7
						c0.3-0.2,0.7-0.3,1.1-0.4c0.4-0.1,0.9-0.1,1.5-0.1h1v-0.5c0-0.3,0-0.5-0.1-0.7c-0.1-0.2-0.1-0.4-0.3-0.5
						c-0.1-0.1-0.3-0.2-0.5-0.3c-0.2-0.1-0.5-0.1-0.7-0.1c-0.3,0-0.6,0-0.9,0.1c-0.3,0.1-0.5,0.2-0.7,0.2c-0.2,0.1-0.3,0.2-0.5,0.2
						c-0.1,0.1-0.2,0.1-0.3,0.1c0,0-0.1,0-0.1,0c0,0-0.1-0.1-0.1-0.1c0,0,0-0.1-0.1-0.2c0-0.1,0-0.1,0-0.2c0-0.1,0-0.2,0-0.3
						c0-0.1,0.1-0.1,0.1-0.2c0.1-0.1,0.2-0.1,0.4-0.2c0.2-0.1,0.4-0.2,0.6-0.2c0.2-0.1,0.5-0.1,0.7-0.2c0.3,0,0.5-0.1,0.8-0.1
						c0.5,0,0.9,0.1,1.3,0.2c0.4,0.1,0.6,0.3,0.9,0.5c0.2,0.2,0.4,0.5,0.5,0.8c0.1,0.3,0.1,0.7,0.1,1.1V57.6z M151.3,54.4h-1.1
						c-0.4,0-0.7,0-0.9,0.1c-0.3,0.1-0.5,0.1-0.6,0.3c-0.2,0.1-0.3,0.3-0.4,0.4c-0.1,0.2-0.1,0.4-0.1,0.6c0,0.4,0.1,0.7,0.3,0.9
						c0.2,0.2,0.6,0.3,1,0.3c0.3,0,0.7-0.1,0.9-0.3c0.3-0.2,0.6-0.4,0.9-0.8V54.4z"/>
					<path fill="#ffffff" d="M161.3,56.5c0,0.1,0,0.2,0,0.2c0,0.1,0,0.1,0,0.2c0,0,0,0.1,0,0.1c0,0-0.1,0.1-0.1,0.2
						c-0.1,0.1-0.2,0.1-0.3,0.2c-0.2,0.1-0.3,0.2-0.5,0.3c-0.2,0.1-0.4,0.1-0.6,0.2c-0.2,0-0.5,0.1-0.7,0.1c-0.5,0-1-0.1-1.3-0.3
						c-0.4-0.2-0.7-0.4-1-0.7c-0.3-0.3-0.5-0.7-0.6-1.2c-0.1-0.5-0.2-1-0.2-1.6c0-0.7,0.1-1.3,0.3-1.8c0.2-0.5,0.4-0.9,0.7-1.2
						c0.3-0.3,0.6-0.6,1-0.7c0.4-0.2,0.8-0.2,1.3-0.2c0.2,0,0.4,0,0.7,0.1c0.2,0,0.4,0.1,0.6,0.2c0.2,0.1,0.3,0.1,0.5,0.2
						c0.1,0.1,0.2,0.2,0.3,0.2s0.1,0.1,0.1,0.1c0,0,0,0.1,0.1,0.1c0,0,0,0.1,0,0.2c0,0.1,0,0.1,0,0.2c0,0.2,0,0.3-0.1,0.4
						c0,0.1-0.1,0.1-0.2,0.1c-0.1,0-0.2,0-0.3-0.1c-0.1-0.1-0.2-0.2-0.4-0.3c-0.2-0.1-0.3-0.2-0.6-0.3c-0.2-0.1-0.5-0.1-0.8-0.1
						c-0.6,0-1.1,0.2-1.4,0.7c-0.3,0.5-0.5,1.2-0.5,2.1c0,0.5,0,0.8,0.1,1.2c0.1,0.3,0.2,0.6,0.4,0.9s0.4,0.4,0.6,0.5
						c0.2,0.1,0.5,0.2,0.8,0.2c0.3,0,0.6,0,0.8-0.1c0.2-0.1,0.4-0.2,0.6-0.3c0.2-0.1,0.3-0.2,0.4-0.3c0.1-0.1,0.2-0.1,0.3-0.1
						c0,0,0.1,0,0.1,0c0,0,0,0.1,0.1,0.1c0,0,0,0.1,0,0.2C161.3,56.3,161.3,56.4,161.3,56.5z"/>
					<path fill="#ffffff" d="M169.4,56.5c0,0.1,0,0.2,0,0.2c0,0.1,0,0.1,0,0.2c0,0,0,0.1,0,0.1c0,0-0.1,0.1-0.1,0.2
						c-0.1,0.1-0.2,0.1-0.3,0.2c-0.2,0.1-0.3,0.2-0.5,0.3c-0.2,0.1-0.4,0.1-0.6,0.2c-0.2,0-0.5,0.1-0.7,0.1c-0.5,0-1-0.1-1.3-0.3
						c-0.4-0.2-0.7-0.4-1-0.7c-0.3-0.3-0.5-0.7-0.6-1.2c-0.1-0.5-0.2-1-0.2-1.6c0-0.7,0.1-1.3,0.3-1.8c0.2-0.5,0.4-0.9,0.7-1.2
						c0.3-0.3,0.6-0.6,1-0.7c0.4-0.2,0.8-0.2,1.3-0.2c0.2,0,0.4,0,0.7,0.1c0.2,0,0.4,0.1,0.6,0.2c0.2,0.1,0.3,0.1,0.5,0.2
						c0.1,0.1,0.2,0.2,0.3,0.2c0.1,0.1,0.1,0.1,0.1,0.1c0,0,0,0.1,0.1,0.1c0,0,0,0.1,0,0.2c0,0.1,0,0.1,0,0.2c0,0.2,0,0.3-0.1,0.4
						c0,0.1-0.1,0.1-0.2,0.1c-0.1,0-0.2,0-0.3-0.1c-0.1-0.1-0.2-0.2-0.4-0.3c-0.2-0.1-0.3-0.2-0.6-0.3c-0.2-0.1-0.5-0.1-0.8-0.1
						c-0.6,0-1.1,0.2-1.4,0.7c-0.3,0.5-0.5,1.2-0.5,2.1c0,0.5,0,0.8,0.1,1.2c0.1,0.3,0.2,0.6,0.4,0.9c0.2,0.2,0.4,0.4,0.6,0.5
						c0.2,0.1,0.5,0.2,0.8,0.2c0.3,0,0.6,0,0.8-0.1c0.2-0.1,0.4-0.2,0.6-0.3c0.2-0.1,0.3-0.2,0.4-0.3c0.1-0.1,0.2-0.1,0.3-0.1
						c0,0,0.1,0,0.1,0c0,0,0,0.1,0.1,0.1c0,0,0,0.1,0,0.2C169.4,56.3,169.4,56.4,169.4,56.5z"/>
					<path fill="#ffffff" d="M175.6,57.8l-0.9,2.6c0,0.1-0.1,0.1-0.2,0.2c-0.1,0-0.3,0.1-0.6,0.1c-0.1,0-0.2,0-0.3,0
						c-0.1,0-0.1,0-0.2-0.1c0,0-0.1-0.1-0.1-0.1c0-0.1,0-0.1,0-0.2l1-2.4c0,0-0.1-0.1-0.1-0.1c0,0-0.1-0.1-0.1-0.1l-2.5-6.7
						c0-0.1-0.1-0.2-0.1-0.3c0-0.1,0-0.1,0.1-0.1c0,0,0.1-0.1,0.2-0.1c0.1,0,0.2,0,0.4,0c0.2,0,0.3,0,0.4,0c0.1,0,0.2,0,0.2,0
						c0.1,0,0.1,0.1,0.1,0.1c0,0,0,0.1,0.1,0.2l2,5.6h0l1.9-5.7c0-0.1,0.1-0.2,0.1-0.2c0,0,0.1,0,0.2-0.1c0.1,0,0.2,0,0.4,0
						c0.1,0,0.3,0,0.4,0c0.1,0,0.2,0,0.2,0.1c0,0,0.1,0.1,0.1,0.1c0,0.1,0,0.1,0,0.2L175.6,57.8z"/>
					<path fill="#ffffff" d="M183.6,56.9c0,0.2,0,0.3,0,0.4c0,0.1-0.1,0.2-0.1,0.3c-0.1,0.1-0.1,0.1-0.3,0.1c-0.1,0-0.2,0-0.4,0
						s-0.3,0-0.4,0c-0.1,0-0.2-0.1-0.3-0.1c-0.1-0.1-0.1-0.2-0.1-0.3c0-0.1,0-0.3,0-0.4c0-0.2,0-0.3,0-0.4c0-0.1,0.1-0.2,0.1-0.3
						c0.1-0.1,0.1-0.1,0.3-0.1c0.1,0,0.2,0,0.4,0s0.3,0,0.4,0c0.1,0,0.2,0.1,0.3,0.1c0.1,0.1,0.1,0.2,0.1,0.3
						C183.5,56.6,183.6,56.8,183.6,56.9z M183.3,54.8c0,0,0,0.1,0,0.1c0,0-0.1,0.1-0.1,0.1c0,0-0.1,0-0.2,0c-0.1,0-0.2,0-0.3,0
						c-0.1,0-0.2,0-0.3,0c-0.1,0-0.1,0-0.2,0c0,0-0.1,0-0.1-0.1c0,0,0-0.1,0-0.1l-0.1-7.4c0-0.1,0-0.1,0-0.2c0,0,0.1-0.1,0.1-0.1
						c0.1,0,0.1-0.1,0.2-0.1c0.1,0,0.2,0,0.4,0c0.1,0,0.3,0,0.3,0c0.1,0,0.2,0,0.2,0.1c0.1,0,0.1,0.1,0.1,0.1c0,0,0,0.1,0,0.2
						L183.3,54.8z"/>
				</g>
				<path fill="#ffffff" d="M75.8,39.8c0,0.6-0.5,1.4-1.1,1.7L40.6,56.8c-0.6,0.3-1.6,0.3-2.1,0L4.3,41.5c-0.6-0.3-1.1-1-1.1-1.7
					V9.6c0-0.6,0.5-1,1.1-0.7l34.3,16.1c0.6,0.3,1.5,0.3,2.1,0L74.8,9c0.6-0.3,1.1,0,1.1,0.7V39.8z M8.5,7.4l0-2
					c0-0.6,0.5-1,1.1-0.7l28.9,13.5c0.6,0.3,1.5,0.3,2.1,0l28-13.5c0.6-0.3,1.1,0,1,0.7l0,2.5L40.7,21.5c-0.6,0.3-1.5,0.3-2.1,0
					L8.5,7.4C8.4,7.4,8.5,7.4,8.5,7.4 M78,3.9l-5.4,2.6V0.8c0-0.6-0.5-0.9-1.1-0.7L40.6,15c-0.6,0.3-1.5,0.3-2.1,0L6.7,0.1
					c-0.6-0.3-1.1,0-1.1,0.7v5.3L1.1,3.9C0.5,3.7,0,4,0,4.6v37.3c0,0.6,0.5,1.4,1.1,1.7l37.4,16.8c0.6,0.3,1.6,0.3,2.1,0l37.4-16.8
					c0.6-0.3,1.1-1,1.1-1.7V4.6C79,4,78.5,3.7,78,3.9"/>
			</g>
		</g>
	</g>
</g>
</svg>
